<svg width="91" height="72" viewBox="0 0 91 72" fill="none" xmlns="http://www.w3.org/2000/svg">
<path d="M12.1922 71.3637H0.68457V58.6383H12.1922C13.2858 58.6389 14.3687 58.4241 15.3791 58.0059C16.3896 57.5877 17.3076 56.9745 18.0809 56.2013C18.8541 55.428 19.4674 54.51 19.8855 53.4995C20.3037 52.4891 20.5185 51.4061 20.5179 50.3126V13.0816H0.68457V0.28772H33.1761V50.3152C33.2433 61.8874 23.767 71.3637 12.1922 71.3637Z" fill="white"/>
<path d="M90.2642 28.3807H77.4971V40.7977H90.2642V28.3807Z" fill="#FF5787"/>
<path fill-rule="evenodd" clip-rule="evenodd" d="M74.2337 31.8953V40.7977H45.9482V28.3807H70.7577C71.2156 28.3807 71.6689 28.4717 72.0917 28.6486C72.5145 28.8254 72.8985 29.0845 73.2215 29.4111C73.5445 29.7377 73.8001 30.1252 73.9739 30.5516C74.1476 30.9779 74.2358 31.4345 74.2337 31.8953V31.8953Z" fill="#008CFF"/>
<path d="M74.25 43.7649H61.9111V56.729H74.25V43.7649Z" fill="#7069FF"/>
<path d="M74.25 12.3163H61.9111V25.2804H74.25V12.3163Z" fill="#0DB7A6"/>
</svg>
