<svg width="16" height="12" viewBox="0 0 16 12" fill="none" xmlns="http://www.w3.org/2000/svg">
<path d="M1.94429 12H0V9.85178H1.94429C2.12916 9.85192 2.31225 9.81565 2.48307 9.74504C2.65389 9.67443 2.80909 9.57088 2.93981 9.4403C3.07053 9.30972 3.1742 9.15468 3.24488 8.98404C3.31557 8.81341 3.35187 8.63053 3.35174 8.44586V2.16064H0V0H5.49294V8.44586C5.49376 8.91205 5.40259 9.37382 5.22465 9.80478C5.04672 10.2358 4.78552 10.6275 4.45595 10.9575C4.12639 11.2876 3.73493 11.5496 3.30397 11.7284C2.873 11.9073 2.41098 11.9996 1.94429 12Z" fill="white"/>
<path d="M13.0784 1.57678H10.8242V3.97657H13.0784V1.57678Z" fill="white"/>
<path d="M15.9955 4.51379H13.6387V6.76554H15.9955V4.51379Z" fill="white"/>
<path fill-rule="evenodd" clip-rule="evenodd" d="M10.825 7.07304V9.68921H13.0564V5.61018C13.0565 5.46753 13.0285 5.32624 12.9739 5.19442C12.9193 5.0626 12.8393 4.94283 12.7383 4.84195C12.6373 4.74108 12.5174 4.66109 12.3854 4.60656C12.2535 4.55203 12.112 4.52403 11.9692 4.52417H7.88477V6.75211H10.5048C10.5473 6.75081 10.5896 6.75823 10.6291 6.77391C10.6686 6.78959 10.7045 6.8132 10.7345 6.84328C10.7645 6.87336 10.788 6.90927 10.8036 6.94879C10.8192 6.98831 10.8265 7.0306 10.825 7.07304Z" fill="white"/>
</svg>
