<svg width="160" height="160" viewBox="0 0 160 160" fill="none" xmlns="http://www.w3.org/2000/svg">
<path d="M0 47.744C0 8.42682 8.42682 0 47.744 0H112.256C151.573 0 160 8.42682 160 47.744V112.256C160 151.573 151.573 160 112.256 160H47.744C8.42682 160 0 151.573 0 112.256V47.744Z" fill="black"/>
<path d="M47.1922 116.364H35.6846V103.638H47.1922C48.2858 103.639 49.3687 103.424 50.3791 103.006C51.3896 102.588 52.3076 101.975 53.0809 101.201C53.8541 100.428 54.4674 99.51 54.8855 98.4995C55.3037 97.4891 55.5185 96.4061 55.5179 95.3126V58.0816H35.6846V45.2877H68.1761V95.3152C68.2433 106.887 58.767 116.364 47.1922 116.364Z" fill="white"/>
<path d="M125.264 73.3807H112.497V85.7977H125.264V73.3807Z" fill="#FF5787"/>
<path fill-rule="evenodd" clip-rule="evenodd" d="M109.234 76.8953V85.7977H80.9482V73.3807H105.758C106.216 73.3807 106.669 73.4717 107.092 73.6486C107.515 73.8254 107.898 74.0845 108.221 74.4111C108.544 74.7377 108.8 75.1252 108.974 75.5516C109.148 75.9779 109.236 76.4345 109.234 76.8953Z" fill="#008CFF"/>
<path d="M109.25 88.7649H96.9111V101.729H109.25V88.7649Z" fill="#7069FF"/>
<path d="M109.25 57.3163H96.9111V70.2804H109.25V57.3163Z" fill="#0DB7A6"/>
</svg>
